<svg xmlns="http://www.w3.org/2000/svg" viewBox="0 0 100 100" width="200" height="200" data-brandmark-version="2.0.0-frontend-logo-v6.2-branding">
  <rect width="100" height="100" rx="20" fill="#18181B"/>

  <g  data-logo-source="SvenKulessa/FRONTEND">
    <g fill="none" stroke-linecap="round">
      <g stroke="#F5C453" stroke-width="2.2" stroke-opacity="0.88">
        <line x1="20" y1="26" x2="50" y2="12"/><line x1="50" y1="12" x2="80" y2="26"/>
        <line x1="80" y1="26" x2="85" y2="60"/><line x1="15" y1="60" x2="20" y2="26"/>
        <line x1="15" y1="60" x2="50" y2="48" stroke-width="2"/><line x1="85" y1="60" x2="50" y2="48" stroke-width="2"/>
        <line x1="50" y1="12" x2="50" y2="48"/><line x1="33" y1="36" x2="20" y2="26" stroke-width="1.4" stroke-opacity="0.8"/>
        <line x1="67" y1="36" x2="80" y2="26" stroke-width="1.4" stroke-opacity="0.8"/>
        <line x1="15" y1="60" x2="85" y2="60" stroke-width="1.3" stroke-opacity="0.45" stroke-dasharray="3 2"/>
      </g>
      <g stroke="#8D26FF" stroke-opacity="0.88">
        <line x1="85" y1="60" x2="68" y2="82" stroke-width="2.2"/><line x1="68" y1="82" x2="32" y2="82" stroke-width="2.2"/>
        <line x1="32" y1="82" x2="15" y2="60" stroke-width="2.2"/><line x1="20" y1="26" x2="50" y2="48" stroke-width="2"/>
        <line x1="80" y1="26" x2="50" y2="48" stroke-width="2"/><line x1="32" y1="82" x2="50" y2="48" stroke-width="2.4"/>
        <line x1="68" y1="82" x2="50" y2="48" stroke-width="2.4"/><line x1="33" y1="36" x2="67" y2="36" stroke-width="1.6" stroke-opacity="0.75"/>
        <line x1="33" y1="36" x2="32" y2="82" stroke-width="1.5" stroke-opacity="0.65"/><line x1="67" y1="36" x2="68" y2="82" stroke-width="1.5" stroke-opacity="0.65"/>
      </g>
    </g>
    <g fill="#F5C453">
      <circle cx="50" cy="12" r="6.2"/><circle cx="20" cy="26" r="7.5"/><circle cx="80" cy="26" r="7.5"/>
      <circle cx="15" cy="60" r="6.5"/><circle cx="85" cy="60" r="6.5"/>
    </g>
    <g fill="#8D26FF">
      <circle cx="33" cy="36" r="4.2"/><circle cx="67" cy="36" r="4.2"/><circle cx="32" cy="82" r="6.8"/>
      <circle cx="68" cy="82" r="6.8"/><circle cx="50" cy="48" r="9"/>
    </g>
    <g fill="#FFFFFF" opacity="0.85">
      <circle cx="48.5" cy="10.5" r="1.8"/><circle cx="18" cy="24" r="2.2"/><circle cx="78" cy="24" r="2.2"/>
      <circle cx="31.8" cy="34.8" r="1.4"/><circle cx="65.8" cy="34.8" r="1.4"/><circle cx="47.5" cy="45.5" r="2.4"/>
    </g>
    <path d="M12 40 L13 36 L14 40 L18 41 L14 42 L13 46 L12 42 L8 41 Z" fill="#F5C453" opacity="0.8"/>
    <path d="M88 42 L89 39 L90 42 L93 43 L90 44 L89 47 L88 44 L85 43 Z" fill="#8D26FF" opacity="0.85"/>
    <path d="M50 72 L51 70 L52 72 L54 73 L52 74 L51 76 L50 74 L48 73 Z" fill="#8D26FF" opacity="0.9"/>
  </g>
</svg>
